<svg width="156" height="37" viewBox="0 0 156 37" fill="none" xmlns="http://www.w3.org/2000/svg">
<path d="M72 17.3935V14.1996H84.5059V17.3935H80.178V28.8003H76.3279V17.3935H72Z" fill="white"/>
<path d="M89.9104 22.6406V28.8003H86.0322V14.1996H89.7699V19.9315H89.8823C90.1259 19.2328 90.531 18.6886 91.0978 18.2989C91.6645 17.9044 92.346 17.7072 93.1423 17.7072C93.9057 17.7072 94.5685 17.883 95.1306 18.2347C95.6973 18.5865 96.1352 19.0712 96.4444 19.6891C96.7582 20.307 96.9128 21.0152 96.9081 21.8136V28.8003H93.0299V22.6406C93.0345 22.0988 92.9011 21.6734 92.6294 21.3645C92.3624 21.0556 91.9807 20.9011 91.4842 20.9011C91.0111 20.9011 90.6317 21.0556 90.346 21.3645C90.0603 21.6734 89.9151 22.0988 89.9104 22.6406Z" fill="white"/>
<path d="M103.994 28.9999C102.265 28.9999 100.905 28.5033 99.9116 27.5099C98.9233 26.5118 98.4292 25.1264 98.4292 23.3536C98.4292 22.2224 98.654 21.2338 99.1036 20.3878C99.5533 19.5418 100.188 18.8835 101.008 18.413C101.827 17.9424 102.794 17.7072 103.909 17.7072C104.996 17.7072 105.94 17.9329 106.741 18.3845C107.546 18.836 108.169 19.4824 108.609 20.3236C109.054 21.1601 109.277 22.1606 109.277 23.325V24.2376H102.251V24.4087C102.251 24.9363 102.41 25.3735 102.729 25.7205C103.052 26.0627 103.502 26.2338 104.078 26.2338C104.476 26.2338 104.823 26.1506 105.118 25.9843C105.417 25.8132 105.624 25.5731 105.736 25.2642H109.277C109.094 26.4049 108.542 27.3127 107.619 27.9876C106.701 28.6625 105.492 28.9999 103.994 28.9999ZM102.251 22.0703H105.708C105.698 21.5998 105.53 21.2172 105.202 20.9225C104.879 20.623 104.476 20.4733 103.994 20.4733C103.52 20.4733 103.113 20.6207 102.771 20.9153C102.434 21.21 102.261 21.595 102.251 22.0703Z" fill="white"/>
<path d="M123.288 14.1996H127.166V23.8384C127.166 24.9505 126.909 25.8892 126.393 26.6544C125.883 27.4149 125.162 27.9923 124.23 28.3868C123.302 28.7766 122.211 28.9714 120.956 28.9714C119.691 28.9714 118.592 28.7766 117.66 28.3868C116.733 27.9923 116.014 27.4149 115.504 26.6544C114.998 25.8892 114.745 24.9505 114.745 23.8384V14.1996H118.651V23.6672C118.651 24.2091 118.855 24.6487 119.262 24.9862C119.674 25.3236 120.239 25.4923 120.956 25.4923C121.686 25.4923 122.258 25.3236 122.67 24.9862C123.082 24.6487 123.288 24.2091 123.288 23.6672V14.1996Z" fill="white"/>
<path d="M136.779 18.7623C136.742 18.287 136.566 17.9163 136.252 17.6501C135.943 17.384 135.472 17.2509 134.84 17.2509C134.236 17.2509 133.796 17.3555 133.519 17.5646C133.243 17.7737 133.102 18.0399 133.098 18.3631C133.079 18.71 133.227 18.9928 133.54 19.2115C133.859 19.4301 134.358 19.6131 135.037 19.7604L136.217 20.0171C137.805 20.364 138.95 20.9201 139.653 21.6853C140.355 22.4458 140.709 23.3821 140.714 24.4942C140.709 25.9344 140.189 27.0418 139.154 27.8165C138.119 28.5865 136.69 28.9714 134.868 28.9714C133.618 28.9714 132.526 28.7837 131.594 28.4082C130.667 28.0327 129.946 27.4553 129.43 26.6758C128.92 25.8916 128.662 24.8887 128.658 23.6672H132.367C132.4 24.3374 132.627 24.8483 133.049 25.2C133.475 25.547 134.063 25.7205 134.812 25.7205C135.44 25.7205 135.913 25.6064 136.231 25.3783C136.554 25.1501 136.718 24.8555 136.723 24.4942C136.718 24.1615 136.557 23.8859 136.238 23.6672C135.92 23.4439 135.36 23.2442 134.559 23.0684L133.126 22.7547C131.852 22.4743 130.847 22.0061 130.112 21.3502C129.381 20.6896 129.018 19.7889 129.023 18.6482C129.018 17.7214 129.262 16.9111 129.754 16.2172C130.25 15.5185 130.936 14.9743 131.812 14.5845C132.693 14.1948 133.702 13.9999 134.84 13.9999C136.002 13.9999 137.006 14.1972 137.854 14.5917C138.702 14.9862 139.355 15.5422 139.814 16.2599C140.278 16.9729 140.512 17.807 140.517 18.7623H136.779Z" fill="white"/>
<path d="M145.377 28.8003H141.162L145.911 14.1996H151.251L156 28.8003H151.785L150.956 26.0057H146.206L145.377 28.8003ZM147.091 23.0399H150.07L148.637 18.2205H148.525L147.091 23.0399Z" fill="white"/>
<path d="M59.8214 4.70727V5.06864L58.7417 6.02822L58.2081 6.01063L57.8026 6.22718L57.913 6.66163V6.96886L56.9725 7.42225L56.8084 8.05566V9.24938L57.5462 10.1169L57.4538 10.4797L56.6788 10.7869V11.2741L56.1217 11.5692L55.7549 11.7627H55.1468L54.1884 12.7223L54.336 12.8671L54.5028 13.9526L53.8754 15.3655L53.6369 15.329L53.5817 14.9297L52.986 14.8973L53.3955 15.5997L53.8754 16.16L53.6727 16.9937L53.3404 17.527H53.0149L53.0646 16.9206L52.7833 16.4848L52.371 16.2723L52.3282 15.7255L52.4579 15.038L52.2565 14.9108L51.7946 15.3818L51.9614 15.7255L51.9987 16.4862L52.2938 16.631L52.6068 17.2103L52.6743 17.5256L52.7157 17.7164L52.5861 18.1333L53.066 18.1698L53.4355 18.3295L53.3431 18.7843L53.6562 18.9833L53.6382 19.1633L53.3238 19.4529L53.8768 19.8698V20.4125L53.4521 20.6656L53.7099 21.1176L53.5265 21.571L52.069 21.8052V22.3655L51.6457 23.1627L50.9631 23.3088L50.8583 23.4834L50.4653 24.1398L50.4846 24.5025L49.6007 25.4242H49.2284L48.9333 26.0576L48.4534 26.3107L48.4451 26.4623L48.3252 28.3382L48.6754 28.7916L48.8243 29.4236L48.8436 29.4412L49.2118 29.7498V30.2397L50.0957 30.9814L50.1881 31.8151L50.5191 32.4228L51.1658 33.6071V35.4017H49.8006C49.8006 35.4017 49.802 35.3855 49.8006 35.3814C49.7482 35.2488 49.4131 34.9619 49.4131 34.9619L48.8988 35.0011V34.3853H48.5472L48.3996 34.1512V33.8074L48.1045 33.7884L47.5157 33.1185L47.5902 32.7382L47.2951 32.7747L47.1462 32.504L47.1655 32.4242L47.2951 31.8706L47.2013 30.93L46.8883 30.8217L45.9492 29.808L45.155 29.7525L44.2159 30.2952L43.8463 30.3859L43.2755 29.5549L41.7517 29.4439L41.5242 29.4277L41.5007 29.4439L41.0264 29.789L40.7685 29.4994L40.4417 29.7836L39.0724 29.789V30.3683L38.8146 30.7121L39.5151 31.4186L39.1276 31.6527L38.1871 31.2183L37.688 31.7989L36.8413 31.7962L36.6027 30.9814L35.6251 30.7107V31.1276L35.4237 31.2548L34.0765 30.911H33.5056L31.6799 31.7069V32.0696L30.9435 32.5568L30.1313 32.7206L29.8362 33.155L29.4308 33.1916L29.2102 33.6978L28.9344 33.7708L28.9523 34.8211C28.9013 34.9943 28.9082 35.2014 28.9386 35.4017C29.0089 35.8538 29.2102 36.2855 29.2102 36.2855L28.9703 36.4655L27.9761 36.1759C27.3348 36.0541 26.9405 35.7171 26.7033 35.4017C26.4468 35.062 26.371 34.748 26.371 34.748C26.2979 34.2581 26.1876 34.0781 26.1876 34.0781C25.5794 33.7343 25.1175 32.4675 25.1175 32.4675C25.112 32.4512 25.1051 32.4377 25.0982 32.4242C24.6569 31.3861 24.0295 30.8758 24.0295 30.8758H23.4214L23.238 30.6769L22.2052 30.6404V31.3468L21.5598 31.8341C20.6014 31.5999 19.923 30.4306 19.923 30.4306L19.9561 29.7904L17.8546 27.2933L15.8992 27.1485L15.7351 27.8915L12.2492 27.4747L8.24885 25.1035V24.4701H5.43994L5.34893 23.4875L5.31032 23.0598L4.83045 22.8798V22.3371H4.3878L4.32024 21.9459L3.94654 21.8485L3.24466 20.9985L2.32352 20.8902L2.0105 20.6371L2.05325 20.5113L2.05463 20.5099L2.1939 20.1107L2.08359 19.9131L1.98982 19.6776L2.11944 19.3514L1.53063 17.9222L1.36378 17.776V17.5594L1.62164 17.2888V17.0181L1.19692 16.5281L1.23416 15.4603L0.846673 15.0434L0.883904 14.4642L0.452294 13.824L0.49642 12.9659L0.626041 12.4191L0 11.7275L0.351631 11.2565L0.995599 10.2252L0.922515 9.71903L1.10591 9.39285L1.18038 8.09085L2.36076 5.99032V5.51933L2.55794 5.23646L2.72893 4.9942L3.09849 3.83702V3.51219L3.43082 3.13188L3.22811 2.76916L3.25155 2.17906L3.55906 1.88537L3.26534 1.84477L3.28327 1.41167L3.09987 1.32099V1.03271L3.28327 0.545474H3.54113L3.70798 0.979925L4.3161 1.21542L4.96145 1.3237V1.7595L4.68566 2.13982L4.3161 2.26568L4.39056 2.84495H4.92421L5.29377 2.4105V1.90161L5.44132 1.72161L5.14623 1.34129L5.35858 0.978572L5.44132 0.780971L5.27447 0.617206L5.43994 0.196289L7.72485 0.887892L10.5476 1.62957L11.5142 1.83935L11.6355 1.86507L16.4481 2.6257L16.5529 2.63923L17.7277 2.77728L23.6986 3.48648L28.8917 3.71115L31.3255 3.55009V3.0791L31.8247 3.36738V3.96424L32.8575 4.32696L33.1526 4.00078L33.9262 4.25387L34.1482 4.61659L34.9039 4.86968L35.4941 4.68697L36.7834 4.88593L37.0978 4.39869L37.4839 4.36215L37.9996 3.81942L37.9638 3.62047L38.1113 3.34978L39.5123 3.40392L39.7702 3.56768L40.3052 4.56246L40.8389 4.5814L40.9492 4.29177L41.4111 4.56246L41.4483 5.0348L41.7434 5.2324L41.7572 5.61407L41.7614 5.75889L42.0744 5.77648V6.1568L42.4246 6.40989L42.5736 6.73471L43.827 6.66298L45.7148 6.62508L46.4636 7.35052L47.0524 8.21807L46.8304 8.59297H46.0113L45.5976 8.12875L45.468 8.20183L45.5204 8.59297L45.5604 8.88802L45.1729 9.57556L45.4307 10.6258L44.8406 11.0968L44.7868 12.0199L44.1787 12.2175V12.526L44.8612 12.5626L45.8375 11.4582L46.7407 11.5123L47.535 10.8979L48.0866 10.9155L48.2341 10.6258L48.1059 10.3727L47.5157 10.4458L47.4233 10.029L48.0121 9.46864L49.0077 8.94486L49.7841 8.98005L49.6724 8.63628L50.9065 8.1301L51.1837 7.56978L51.9587 6.89983L54.9082 6.22853L55.0916 5.74265L55.5467 5.61678L55.5508 5.61542L55.6625 5.39888L55.6805 5.0551L55.9397 4.96442L55.9204 4.58411L55.6998 4.13071L56.0045 2.63788H58.0357L58.5211 4.13071L58.9637 4.14966L59.0161 4.61524L59.8214 4.70727Z" fill="white"/>
</svg>
